<?xml version="1.0" encoding="utf-8"?>
<!-- Generator: Adobe Illustrator 23.0.3, SVG Export Plug-In . SVG Version: 6.00 Build 0)  -->
<svg version="1.1" id="Capa_1" xmlns="http://www.w3.org/2000/svg" xmlns:xlink="http://www.w3.org/1999/xlink" x="0px" y="0px"
	 viewBox="0 0 546.4 277.4" style="enable-background:new 0 0 546.4 277.4;" xml:space="preserve">
<style type="text/css">
	.st0{fill-rule:evenodd;clip-rule:evenodd;fill:#FE0200;}
	.st1{fill-rule:evenodd;clip-rule:evenodd;fill:#FFFFFF;}
</style>
<g>
	<g>
		<path class="st0" d="M0,179.3c1.2,127.2,265.7,102.4,344.3,79.6c67.2-19.5,182.1-73.7,199.9-144.7C562.6,40.8,462.9,5.5,406.7,1.1
			C299.2-7.2-1.5,28.3,0,179.3z"/>
		<path class="st1" d="M209.3,113.4c3.9,1.8,4.4,8.9,1.2,15.8c-3.2,6.9-9,11.1-12.9,9.3c-3.9-1.8-4.4-8.9-1.2-15.8
			C199.6,115.8,205.4,111.6,209.3,113.4z M222.2,106.7L222.2,106.7z M222.2,106.7c3.8-10.5,14.5-6.5,13.3,1.5l-10.9,27.9
			c-0.5,1.3-0.8,1.1,0.5,1.8c1.7,0.8,3.4,1.1,5.1,1.1c2.5,0.1,4.7-1.3,6.5,0.2c9.8,8.2-8.7,22.2-23.5,9.4
			c-50.5,17.1-39-33.7-18.2-44.3C205.1,99.2,217.5,99.5,222.2,106.7z"/>
		<path class="st1" d="M435.2,114.8c3.9,1.8,4.4,8.9,1.2,15.8c-3.2,6.9-9,11.1-12.9,9.3c-3.9-1.8-4.4-8.9-1.2-15.8
			C425.5,117.1,431.3,113,435.2,114.8z M448,108L448,108z M448,108c3.8-10.5,14.5-6.5,13.3,1.5l-10.9,27.9c-0.5,1.3-0.8,1.1,0.5,1.8
			c1.7,0.8,3.4,1.1,5.1,1.1c2.5,0.1,4.7-1.3,6.5,0.2c9.8,8.2-8.7,22.2-23.5,9.4c-50.5,17.1-39-33.7-18.2-44.3
			C431,100.6,443.3,100.9,448,108z"/>
		<path class="st1" d="M149.2,153.7l21,0.1c8.7-3.3,6.2-12.4,0.5-13.5l-8.8-0.1l24.6-62.9c3.5-13-8.8-12.9-12-4.8L147,144.8
			C146.3,146.8,143,152.7,149.2,153.7z"/>
		<path class="st1" d="M334.6,114.5c4-1.3,7.8-0.8,8.4,1.1c0.6,1.9-2.2,4.5-6.2,5.7c-4.1,1.3-7.8,0.8-8.4-1.1
			C327.8,118.4,330.6,115.8,334.6,114.5z M327.5,133.8L327.5,133.8z M327.5,133.8c5.2,0.1,16.2,0.5,18.6-0.6
			c23.6-10,7.2-31.6-8.4-31.2c-20,0.4-32.5,18.1-29,35.2c1.8,8.6,9.2,16.3,18.2,16.4c7.2,0.1,27.5,0.5,29.2-0.3
			c5.2-2.6,5.9-12.3-1.3-13.6H327C326.5,139.6,322.7,135.8,327.5,133.8z"/>
		<path class="st1" d="M130.9,83.2l-3,10.8c-0.3,0.9-0.3,0.8,0.7,0.7c16.1-0.4,19.4-12.1,4.4-13.2C130.9,81.5,131.4,81.3,130.9,83.2
			z M114.2,81.9L114.2,81.9z M114.2,81.9c-0.9,6-26.9,95.2-52.8,82.2c-10.3-5.2-16-32.9,18.7-41.7c7.9-2,16.1-1.1,18.9-7.2
			c8.1-18.2-46.8-12.9-59.4,19.6c-13.9,35.9,17.3,60.7,45.5,42c19-12.6,24.6-41.6,36.7-66.1c14-1.5,20.3,1.2,30.1-7.7
			c7.9-7.1,13.6-30.3-8.6-36.4c-1.1-0.3-1.5-0.3-2.6-0.3l-28.5,0.1C100.9,66.3,98.6,82.5,114.2,81.9z"/>
		<path class="st1" d="M379.3,139.4l9.1-24.6l9.8-0.1c6.8-0.6,9-9.1,5.5-11.9c-1-0.8-1.9-0.9-3.1-0.9l-5,0l2.5-10.7
			c1.3-7.9-11.6-10.6-15.3-1.9l-4.3,12.2l-7.6,0c-5-0.4-8.2,6.6-7.1,10.9c0.5,2,1.9,2,2.6,2l5.8,0.2l-9.6,24.4
			c-2.3,5.8-1.9,9.9,2.6,13.8c1,0.9,1.3,1,2.8,1h20.9c9.3,0,9.5-14.1,3.4-14.4H379.3z"/>
		<path class="st1" d="M275.2,106.2c8-7.6,23.5-5,27,5.6c2.9,9-15.4,26.6-6.5,26.6h8.6c1.3,0,2,0.1,3.1,1c3.5,3.3,1.8,12.6-4,14.1
			l-19.6,0.1c-10.5-0.3-12.9-5.1-9.2-13.3l7.1-16.6c3.7-10.8-6.8-11.8-10.5-2.7l-11,23.1c-6.3,13.2-21.9,12.8-17.2-2.2l13.4-29.7
			c3.5-7.8,8.6-13.2,16.3-6.4C273.9,107,273.9,107.4,275.2,106.2z"/>
		<path class="st1" d="M18.8,188.1c37,45.1,105.4,60.9,196.2,55.7C160.4,259,43,253.1,18.8,188.1z"/>
		<path class="st1" d="M438.9,192.1c-0.4,0.1-0.9,0.2-1.6,0.3c-3.3,0.4-5.5,1-6.5,1.8c-0.7,0.6-1.1,1.3-1.1,2.3c0,0.8,0.3,1.4,0.8,2
			c0.6,0.5,1.3,0.8,2.2,0.8c1,0,2-0.3,2.8-0.7c0.9-0.5,1.5-1.1,2-1.9c0.5-0.8,0.8-2,1.2-3.6L438.9,192.1z M432.6,185.9L432.6,185.9z
			 M432.6,185.9l-6.4-0.5c0.7-2.2,2-3.9,3.9-5.1c1.8-1.2,4.3-1.8,7.3-1.8c3.1,0,5.5,0.7,7,1.9c1.5,1.3,2.3,2.8,2.3,4.6
			c0,0.7-0.1,1.5-0.2,2.4c-0.1,0.8-0.6,3-1.4,6.6c-0.7,2.9-1,5-1,6.1c0,1,0.2,2.2,0.6,3.5h-6.4c-0.3-0.9-0.4-1.8-0.5-2.8
			c-1,1.1-2.1,1.9-3.3,2.5c-1.2,0.6-2.5,0.9-3.8,0.9c-2,0-3.7-0.7-5-2c-1.3-1.3-2-3.1-2-5.1c0-2.4,0.7-4.2,2.2-5.6
			c1.5-1.4,4.1-2.3,7.8-2.6c3.1-0.3,5.3-0.6,6.3-1c0.3-0.9,0.4-1.6,0.4-2.2c0-0.7-0.3-1.3-0.9-1.8c-0.6-0.5-1.4-0.7-2.6-0.7
			c-1.2,0-2.1,0.3-2.8,0.7C433.3,184.3,432.8,185,432.6,185.9z M398.6,203.5L398.6,203.5z M398.6,203.5l0.9-4.5l13.4-14.9H402
			l1.1-5.1h19.2l-0.8,3.9l-13.6,15.2h11.8l-1.1,5.3H398.6z M375.1,203.5L375.1,203.5z M375.1,203.5l0.9-4.5l13.4-14.9h-10.9l1.1-5.1
			h19.2l-0.8,3.9l-13.5,15.2h11.8l-1.1,5.3H375.1z M368.2,179L368.2,179z M368.2,179h6.6l-5.1,24.5h-6.6L368.2,179z M370.1,169.8
			L370.1,169.8z M370.1,169.8h6.6l-1.2,6h-6.6L370.1,169.8z M343.1,193.1L343.1,193.1z M343.1,193.1c0,1.9,0.5,3.4,1.4,4.5
			c0.9,1,2,1.6,3.3,1.6c1.1,0,2.2-0.4,3.2-1.2c1-0.8,1.9-2.1,2.6-4c0.7-1.8,1-3.6,1-5.2c0-1.8-0.4-3.3-1.3-4.3c-0.9-1-2-1.5-3.3-1.5
			c-1.3,0-2.4,0.5-3.5,1.4c-1,0.9-1.9,2.2-2.4,4C343.4,190.2,343.1,191.8,343.1,193.1z M339.1,179L339.1,179z M339.1,179h6.3
			l-0.5,2.5c1.3-1.1,2.6-1.9,3.8-2.4c1.2-0.5,2.4-0.7,3.7-0.7c2.6,0,4.6,0.9,6.2,2.7c1.6,1.8,2.4,4.4,2.4,7.9
			c0,4.5-1.4,8.2-4.1,11.2c-2.3,2.6-5,3.9-8.2,3.9c-3.3,0-5.7-1.3-7.4-3.9l-2.6,12.6h-6.6L339.1,179z"/>
		<path class="st1" d="M486.6,87.7c-1.3,0.1-2.4,0.5-3.3,1c-0.9,0.5-1.9,1.3-2.4,1.9c-0.7,0.9-1.2,1.5-1.6,2.8
			c-0.4,1.1-0.6,2.5-0.4,3.8c0.4,4.4,4.5,8.2,9.5,7.7c4.6-0.5,8.1-4.6,7.7-9.5c-0.2-2.2-1.3-4.3-2.9-5.7
			C491.6,88.5,489.4,87.5,486.6,87.7z M486.8,85.6L486.8,85.6z M486.8,85.6c-3.5,0.3-5.6,1.8-7.2,3.5c-1.7,1.9-3,4.4-2.8,8
			c0.2,3.1,1.4,5.3,3.5,7.3c3,2.9,8.3,3.7,12.1,1.6c3.6-2,6.1-5.6,5.8-10.3c-0.1-2.3-0.9-4.2-2.2-5.9c-1.1-1.4-2.9-2.8-4.6-3.5
			C490,85.8,488.4,85.5,486.8,85.6z"/>
		<path class="st1" d="M485.2,95.5c1.7,0,4.4,0.4,4.5-1.5c0.1-2-2.8-1.6-4.5-1.6V95.5z M482.9,102.1L482.9,102.1z M482.9,102.1
			l2.3,0l0-4.7c0.8,0,1.4,0,2,0.4c0.4,0.3,0.9,0.8,1.1,1.3c0.3,0.5,0.6,1,0.8,1.5c0.2,0.4,0.5,1.3,0.9,1.6h2.8
			c-0.1-0.3-1.3-2.3-1.6-2.8c-0.6-1-1.1-1.8-2.1-2.2c0.1-0.1,3.6-0.7,2.9-4c-0.1-0.7-0.5-1.2-0.9-1.6c-1.1-1-1.9-0.9-3.7-0.9
			c-1.4,0-3.2-0.1-4.6,0V102.1z"/>
	</g>
</g>
</svg>
